<?xml version="1.0" encoding="UTF-8" standalone="no"?>
<svg
   xmlns:dc="http://purl.org/dc/elements/1.1/"
   xmlns:cc="http://creativecommons.org/ns#"
   xmlns:rdf="http://www.w3.org/1999/02/22-rdf-syntax-ns#"
   xmlns:svg="http://www.w3.org/2000/svg"
   xmlns="http://www.w3.org/2000/svg"
   xmlns:sodipodi="http://sodipodi.sourceforge.net/DTD/sodipodi-0.dtd"
   xmlns:inkscape="http://www.inkscape.org/namespaces/inkscape"
   version="1.0"
   width="900.000000pt"
   height="650.000000pt"
   viewBox="0 0 900.000000 650.000000"
   preserveAspectRatio="xMidYMid meet"
   id="svg2"
   inkscape:version="0.91 r13725"
   sodipodi:docname="cake.svg"
   inkscape:export-filename="/home/yromero/ownCloud/UNLaM/Proyecto final/lab/files/portal/index_files/youtube.png"
   inkscape:export-xdpi="89"
   inkscape:export-ydpi="89">
  <defs
     id="defs14" />
  <sodipodi:namedview
     pagecolor="#ffffff"
     bordercolor="#666666"
     borderopacity="1"
     objecttolerance="10"
     gridtolerance="10"
     guidetolerance="10"
     inkscape:pageopacity="0"
     inkscape:pageshadow="2"
     inkscape:window-width="1920"
     inkscape:window-height="1016"
     id="namedview12"
     showgrid="false"
     inkscape:zoom="0.58092308"
     inkscape:cx="673.1149"
     inkscape:cy="387.92121"
     inkscape:window-x="0"
     inkscape:window-y="27"
     inkscape:window-maximized="1"
     inkscape:current-layer="svg2" />
  <metadata
     id="metadata4">
Created by potrace 1.13, written by Peter Selinger 2001-2015
<rdf:RDF>
  <cc:Work
     rdf:about="">
    <dc:format>image/svg+xml</dc:format>
    <dc:type
       rdf:resource="http://purl.org/dc/dcmitype/StillImage" />
    <dc:title></dc:title>
  </cc:Work>
</rdf:RDF>
</metadata>
  <path
     inkscape:connector-curvature="0"
     d="m 537.04731,382.1828 c -2.54495,0 -4.37585,0.71764 -5.49271,2.2449 -1.10769,1.43527 -1.6478,3.90099 -1.6478,7.32355 l 0,8.24357 14.12542,0 0,-8.24357 c 0,-3.42256 -0.56759,-5.88828 -1.69359,-7.32355 -1.06193,-1.52726 -2.86536,-2.2449 -5.29132,-2.2449 z m -55.0919,-0.28521 c 2.14217,0 3.81745,0.69923 4.98007,2.1161 1.126,1.41686 1.69358,3.52376 1.69358,6.27469 l 0,42.17474 c 0,2.63132 -0.48518,4.48061 -1.40065,5.62146 -0.91544,1.16844 -2.34355,1.73888 -4.30261,1.73888 -1.35487,0 -2.62735,-0.30361 -3.85405,-0.88325 -1.23586,-0.57042 -2.50834,-1.57326 -3.79913,-2.87973 l 0,-50.88754 c 1.08938,-1.12246 2.18793,-1.95969 3.29562,-2.49332 1.1077,-0.54282 2.23371,-0.78203 3.38717,-0.78203 z m 47.96053,30.81222 0,15.38311 c 0,4.30579 0.52181,7.28673 1.55628,8.96121 1.08023,1.66528 2.86536,2.47491 5.41947,2.47491 2.64566,0 4.49487,-0.69922 5.54763,-2.10689 1.04363,-1.40767 1.60205,-4.49901 1.60205,-9.32003 l 0,-3.72618 16.43236,0 0,4.1954 c 0,8.38159 -1.98652,14.68387 -6.01452,18.94368 -3.98221,4.22298 -9.96927,6.32068 -17.92454,6.32068 -7.14969,0 -12.79803,-2.2265 -16.9084,-6.72551 -4.10122,-4.4714 -6.18846,-10.64489 -6.18846,-18.52965 l 0,-36.67289 c 0,-7.06592 2.27947,-12.8622 6.79265,-17.31519 4.51318,-4.46221 10.32629,-6.68872 17.49429,-6.68872 7.31446,0 12.93533,2.0701 16.87179,6.20109 3.92727,4.12179 5.87719,10.05606 5.87719,17.80282 l 0,20.82976 -30.55779,0 z m -28.60787,35.30203 c -2.48087,3.09134 -6.12437,4.60941 -10.86642,4.60941 -3.13999,0 -5.91381,-0.57043 -8.34891,-1.76649 -2.44426,-1.18685 -4.7512,-3.00853 -6.82928,-5.52945 l 0,6.26549 -16.14857,0 0,-110.6995 16.14857,0 0,35.65164 c 2.16963,-2.48411 4.43994,-4.3978 6.84758,-5.67666 2.44426,-1.30645 4.88852,-1.94128 7.36939,-1.94128 5.0716,0 8.92566,1.73887 11.58047,5.19823 2.69143,3.48697 4.00968,8.584 4.00968,15.27271 l 0,45.32128 c 0,5.77787 -1.25417,10.20328 -3.76251,13.29462 z m -70.16939,3.57896 0,-8.97961 c -2.97522,3.32134 -6.02368,5.85147 -9.23691,7.56274 -3.19494,1.75729 -6.28001,2.59452 -9.28268,2.59452 -3.70758,0 -6.45394,-1.18685 -8.35808,-3.64336 -1.84006,-2.44732 -2.79213,-6.05389 -2.79213,-10.93931 l 0,-68.28554 15.96548,0 0,62.64568 c 0,1.9413 0.33872,3.33055 0.97953,4.20459 0.7049,0.87404 1.79429,1.29726 3.27733,1.29726 1.17177,0 2.67311,-0.57042 4.4674,-1.72968 1.80344,-1.15005 3.43295,-2.60371 4.96174,-4.37019 l 0,-62.04766 15.96549,0 0,81.68136 -15.94717,0 z m -55.31161,-94.61716 0,94.61716 -18.01609,0 0,-94.61716 -18.6203,0 0,-16.08234 55.25668,0 0,16.08234 -18.62029,0 z m 73.95021,-51.72477 c 0,-0.01 110.5866,0.1656 123.71417,13.34061 13.17337,13.2026 13.31984,78.3324 13.31984,78.70962 0,0 -0.11448,65.47941 -13.31984,78.71882 -13.12757,13.15661 -123.71417,13.44183 -123.71417,13.44183 0,0 -110.57744,-0.28522 -123.73249,-13.45102 -13.1642,-13.20262 -13.19166,-78.222 -13.19166,-78.71884 0,-0.37722 0.0343,-65.50701 13.19166,-78.70962 13.1642,-13.1658 123.73249,-13.34061 123.73249,-13.3314 z m 87.20595,-34.25319 -17.99779,0 0,-9.93646 c -3.2773,3.65257 -6.73771,6.4679 -10.34459,8.3632 -3.58858,1.91368 -7.05815,2.87052 -10.43616,2.87052 -4.19277,0 -7.29616,-1.34326 -9.4017,-4.02058 -2.09638,-2.67733 -3.1583,-6.68872 -3.1583,-12.06176 l 0,-75.18586 17.96117,0 0,68.97558 c 0,2.1253 0.41194,3.67096 1.16262,4.6186 0.73236,0.95685 1.97738,1.43527 3.65266,1.43527 1.30909,0 2.99352,-0.63483 5.01667,-1.89528 2.014,-1.26047 3.87237,-2.87054 5.53849,-4.84863 l 0,-68.28554 17.99779,0 0,89.97094 z m -97.70618,-15.33711 c 1.27248,1.35247 3.10337,2.0149 5.49271,2.0149 2.4351,0 4.35755,-0.69003 5.80396,-2.05169 1.43726,-1.39846 2.15131,-3.29376 2.15131,-5.68587 l 0,-49.01066 c 0,-1.96888 -0.73236,-3.56056 -2.20623,-4.77501 -1.46473,-1.20526 -3.38718,-1.80328 -5.74904,-1.80328 -2.20624,0 -3.98222,0.59802 -5.36455,1.80328 -1.35487,1.21445 -2.05976,2.80613 -2.05976,4.77501 l 0,49.01066 c 0,2.45652 0.65911,4.3518 1.9316,5.72266 z m -13.17336,-70.70524 c 4.83358,-4.13099 11.36076,-6.20109 19.51743,-6.20109 7.43348,0 13.54869,2.18049 18.3182,6.5415 4.73289,4.35179 7.11306,9.96405 7.11306,16.81838 l 0,46.47134 c 0,7.69155 -2.3344,13.71782 -6.97575,18.10643 -4.69625,4.37939 -11.09527,6.56909 -19.27941,6.56909 -7.85457,0 -14.16204,-2.2633 -18.89493,-6.77151 -4.69627,-4.52661 -7.06729,-10.60808 -7.06729,-18.25363 l 0,-46.62776 c -0.009,-6.98312 2.40764,-12.53097 7.26869,-16.65275 z m -56.26367,-35.90926 -20.40543,0 24.11301,73.63099 0,48.32062 20.25894,0 0,-50.60233 23.56374,-71.34928 -20.59767,0 -12.50508,48.74384 -1.27247,0 -13.15504,-48.74384 z m 79.99219,441.62034 c -151.67209,0 -274.6356,-123.58009 -274.6356,-276.01272 0,-152.44182 122.96351,-276.012709 274.6356,-276.012709 151.67208,0 274.63559,123.570889 274.63559,276.012709 0,152.43263 -122.96351,276.01272 -274.63559,276.01272 z"
     style="clip-rule:evenodd;fill:#cf3427;fill-rule:evenodd"
     id="path3" />
  <path
     style="fill:#ffffff;stroke:none"
     inkscape:connector-curvature="0"
     id="path8"
     d="m 0,325 0,325 450,0 450,0 0,-325 L 900,0 450,0 0,0 0,325 Z M 488.8,71.9 c 101.8,15.5 184.6,90.9 209.5,190.6 5.5,22.2 7.2,36.5 7.2,62.5 0,26 -1.7,40.3 -7.2,62.5 -22.8,91.2 -94.6,163 -185.8,185.8 -22.2,5.5 -36.5,7.2 -62.5,7.2 -26,0 -40.3,-1.7 -62.5,-7.2 -91.2,-22.8 -163,-94.6 -185.8,-185.8 -5.5,-22.2 -7.2,-36.5 -7.2,-62.5 0,-26 1.7,-40.3 7.2,-62.5 22.8,-91.2 94.6,-163 185.8,-185.8 11.9,-3 22.3,-4.7 42.5,-7.1 9.2,-1.1 46.1,0.3 58.8,2.3 z" />
</svg>
