<?xml version="1.0" encoding="UTF-8" standalone="no"?>
<svg
   xmlns:dc="http://purl.org/dc/elements/1.1/"
   xmlns:cc="http://creativecommons.org/ns#"
   xmlns:rdf="http://www.w3.org/1999/02/22-rdf-syntax-ns#"
   xmlns:svg="http://www.w3.org/2000/svg"
   xmlns="http://www.w3.org/2000/svg"
   xmlns:sodipodi="http://sodipodi.sourceforge.net/DTD/sodipodi-0.dtd"
   xmlns:inkscape="http://www.inkscape.org/namespaces/inkscape"
   version="1.0"
   width="900.000000pt"
   height="650.000000pt"
   viewBox="0 0 900.000000 650.000000"
   preserveAspectRatio="xMidYMid meet"
   id="svg2"
   inkscape:version="0.91 r13725"
   sodipodi:docname="cloud.svg"
   inkscape:export-filename="/home/yromero/ownCloud/UNLaM/Proyecto final/lab/files/portal/index_files/cloud.png"
   inkscape:export-xdpi="89"
   inkscape:export-ydpi="89">
  <defs
     id="defs14" />
  <sodipodi:namedview
     pagecolor="#ffffff"
     bordercolor="#666666"
     borderopacity="1"
     objecttolerance="10"
     gridtolerance="10"
     guidetolerance="10"
     inkscape:pageopacity="0"
     inkscape:pageshadow="2"
     inkscape:window-width="1920"
     inkscape:window-height="1016"
     id="namedview12"
     showgrid="false"
     inkscape:zoom="0.58092308"
     inkscape:cx="673.1149"
     inkscape:cy="387.92121"
     inkscape:window-x="0"
     inkscape:window-y="27"
     inkscape:window-maximized="1"
     inkscape:current-layer="svg2" />
  <metadata
     id="metadata4">
Created by potrace 1.13, written by Peter Selinger 2001-2015
<rdf:RDF>
  <cc:Work
     rdf:about="">
    <dc:format>image/svg+xml</dc:format>
    <dc:type
       rdf:resource="http://purl.org/dc/dcmitype/StillImage" />
    <dc:title></dc:title>
  </cc:Work>
</rdf:RDF>
</metadata>
  <g
     id="Layer_1"
     transform="matrix(8.2665652,0,0,8.2665652,185.09911,55.650002)">
    <g
       id="g5">
      <circle
         style="fill:#c75c5c"
         cx="32"
         cy="32"
         r="32"
         id="circle7" />
    </g>
    <g
       style="opacity:0.2"
       id="g9">
      <g
         id="g11">
        <path
           style="fill:#231f20"
           inkscape:connector-curvature="0"
           d="M 39.984,11.174 C 39.986,11.158 40,11.131 40,11.117 c 0,-0.161 -0.005,-0.113 -0.016,0.057 z"
           id="path13" />
      </g>
      <g
         id="g15">
        <path
           style="fill:#231f20"
           inkscape:connector-curvature="0"
           d="m 24,11.117 c 0,0.016 0.015,0.044 0.018,0.062 C 24.006,11.005 24,10.954 24,11.117 Z"
           id="path17" />
      </g>
    </g>
    <g
       id="g19">
      <g
         style="opacity:0.2"
         id="g21">
        <path
           style="fill:#231f20"
           inkscape:connector-curvature="0"
           d="M 48,32 C 48,25.531 44.153,19.973 38.63,17.451 36.904,16.727 36,18.046 36,19.117 l 0,8.5 C 36,28.445 36.672,29 37.5,29 l 3.061,0 c 1.471,0 1.883,1.127 0.914,2.362 l -7.713,9.829 c -0.969,1.235 -2.555,1.235 -3.524,0 L 22.525,31.362 C 21.556,30.127 21.967,29 23.439,29 l 3.061,0 c 0.828,0 1.5,-0.555 1.5,-1.383 l 0,-8.5 c 0,-1.105 -1.504,-2.142 -2.753,-1.61 -0.003,10e-4 -0.005,-0.002 -0.008,-0.001 -4.311,2.02 -7.573,5.905 -8.748,10.62 C 11.687,28.854 8,32.991 8,38 c 0,5.523 4.477,10 10,10 l 30,0 c 4.418,0 8,-3.582 8,-8 0,-4.418 -3.582,-8 -8,-8 z"
           id="path23" />
      </g>
      <g
         id="g25">
        <path
           style="fill:#ffffff"
           inkscape:connector-curvature="0"
           d="M 48,30 C 48,23.531 44.153,17.973 38.63,15.451 36.904,14.727 36,16.046 36,17.117 l 0,8.5 C 36,26.445 36.672,27 37.5,27 l 3.061,0 c 1.471,0 1.883,1.127 0.914,2.362 l -7.713,9.829 c -0.969,1.235 -2.555,1.235 -3.524,0 L 22.525,29.362 C 21.556,28.127 21.967,27 23.439,27 l 3.061,0 c 0.828,0 1.5,-0.555 1.5,-1.383 l 0,-8.5 c 0,-1.105 -1.504,-2.142 -2.753,-1.61 -0.003,10e-4 -0.005,-0.002 -0.008,-10e-4 -4.311,2.02 -7.573,5.905 -8.748,10.62 C 11.687,26.854 8,30.991 8,36 c 0,5.523 4.477,10 10,10 l 30,0 c 4.418,0 8,-3.582 8,-8 0,-4.418 -3.582,-8 -8,-8 z"
           id="path27" />
      </g>
      <g
         id="g29">
        <path
           style="fill:#8c81d4"
           inkscape:connector-curvature="0"
           d="M 39.984,9.174 C 39.986,9.158 40,9.131 40,9.117 40,8.956 39.995,9.004 39.984,9.174 Z"
           id="path31" />
      </g>
      <g
         id="g33">
        <path
           style="fill:#8c81d4"
           inkscape:connector-curvature="0"
           d="m 24,9.117 c 0,0.016 0.015,0.044 0.018,0.062 C 24.006,9.005 24,8.954 24,9.117 Z"
           id="path35" />
      </g>
    </g>
  </g>
  <path
     style="fill:#e9afaf;stroke:none"
     inkscape:connector-curvature="0"
     id="path8"
     d="m 0,325 0,325 450,0 450,0 0,-325 L 900,0 450,0 0,0 0,325 Z M 488.8,71.9 c 101.8,15.5 184.6,90.9 209.5,190.6 5.5,22.2 7.2,36.5 7.2,62.5 0,26 -1.7,40.3 -7.2,62.5 -22.8,91.2 -94.6,163 -185.8,185.8 -22.2,5.5 -36.5,7.2 -62.5,7.2 -26,0 -40.3,-1.7 -62.5,-7.2 -91.2,-22.8 -163,-94.6 -185.8,-185.8 -5.5,-22.2 -7.2,-36.5 -7.2,-62.5 0,-26 1.7,-40.3 7.2,-62.5 22.8,-91.2 94.6,-163 185.8,-185.8 11.9,-3 22.3,-4.7 42.5,-7.1 9.2,-1.1 46.1,0.3 58.8,2.3 z" />
  <g
     id="Layer_2"
     transform="matrix(0.8,0,0,0.8,424.71776,230.54407)" />
</svg>
