<?xml version="1.0" encoding="UTF-8" standalone="no"?>
<svg
   xmlns:dc="http://purl.org/dc/elements/1.1/"
   xmlns:cc="http://creativecommons.org/ns#"
   xmlns:rdf="http://www.w3.org/1999/02/22-rdf-syntax-ns#"
   xmlns:svg="http://www.w3.org/2000/svg"
   xmlns="http://www.w3.org/2000/svg"
   xmlns:sodipodi="http://sodipodi.sourceforge.net/DTD/sodipodi-0.dtd"
   xmlns:inkscape="http://www.inkscape.org/namespaces/inkscape"
   version="1.0"
   width="900.000000pt"
   height="650.000000pt"
   viewBox="0 0 900.000000 650.000000"
   preserveAspectRatio="xMidYMid meet"
   id="svg2"
   inkscape:version="0.91 r13725"
   sodipodi:docname="facebook.svg"
   inkscape:export-filename="/home/yromero/ownCloud/UNLaM/Proyecto final/lab/files/portal/index_files/facebook.png"
   inkscape:export-xdpi="89"
   inkscape:export-ydpi="89">
  <defs
     id="defs14" />
  <sodipodi:namedview
     pagecolor="#ffffff"
     bordercolor="#666666"
     borderopacity="1"
     objecttolerance="10"
     gridtolerance="10"
     guidetolerance="10"
     inkscape:pageopacity="0"
     inkscape:pageshadow="2"
     inkscape:window-width="1920"
     inkscape:window-height="1016"
     id="namedview12"
     showgrid="false"
     inkscape:zoom="0.58092308"
     inkscape:cx="334.86013"
     inkscape:cy="387.92121"
     inkscape:window-x="0"
     inkscape:window-y="27"
     inkscape:window-maximized="1"
     inkscape:current-layer="svg2" />
  <metadata
     id="metadata4">
Created by potrace 1.13, written by Peter Selinger 2001-2015
<rdf:RDF>
  <cc:Work
     rdf:about="">
    <dc:format>image/svg+xml</dc:format>
    <dc:type
       rdf:resource="http://purl.org/dc/dcmitype/StillImage" />
    <dc:title />
  </cc:Work>
</rdf:RDF>
</metadata>
  <path
     inkscape:connector-curvature="0"
     d="m 403.4964,465.17833 63.59555,0 0,-141.80261 42.42531,0 5.62023,-48.8603 -48.04554,0 0.0707,-24.46491 c 0,-12.73634 1.32019,-19.57366 21.16078,-19.57366 l 26.51699,0 0,-48.86899 -42.43472,0 c -50.96886,0 -68.90461,23.70906 -68.90461,63.56877 l 0,29.33879 -31.76947,0 0,48.86898 31.76947,0 0,141.79393 z m 39.93581,118.84939 c -156.23531,0 -282.89831,-116.6948 -282.89831,-260.63463 0,-143.9485 126.663,-260.634611 282.89831,-260.634611 156.23531,0 282.89831,116.686111 282.89831,260.634611 0,143.93983 -126.663,260.63463 -282.89831,260.63463 z"
     style="clip-rule:evenodd;fill:#3a589b;fill-rule:evenodd"
     id="path3-3" />
  <path
     style="fill:#d5e5ff;stroke:none"
     inkscape:connector-curvature="0"
     id="path8"
     d="m 0,325 0,325 450,0 450,0 0,-325 L 900,0 450,0 0,0 0,325 Z M 488.8,71.9 c 101.8,15.5 184.6,90.9 209.5,190.6 5.5,22.2 7.2,36.5 7.2,62.5 0,26 -1.7,40.3 -7.2,62.5 -22.8,91.2 -94.6,163 -185.8,185.8 -22.2,5.5 -36.5,7.2 -62.5,7.2 -26,0 -40.3,-1.7 -62.5,-7.2 -91.2,-22.8 -163,-94.6 -185.8,-185.8 -5.5,-22.2 -7.2,-36.5 -7.2,-62.5 0,-26 1.7,-40.3 7.2,-62.5 22.8,-91.2 94.6,-163 185.8,-185.8 11.9,-3 22.3,-4.7 42.5,-7.1 9.2,-1.1 46.1,0.3 58.8,2.3 z" />
</svg>
