<?xml version="1.0" encoding="UTF-8" standalone="no"?>
<svg
   xmlns:dc="http://purl.org/dc/elements/1.1/"
   xmlns:cc="http://creativecommons.org/ns#"
   xmlns:rdf="http://www.w3.org/1999/02/22-rdf-syntax-ns#"
   xmlns:svg="http://www.w3.org/2000/svg"
   xmlns="http://www.w3.org/2000/svg"
   xmlns:sodipodi="http://sodipodi.sourceforge.net/DTD/sodipodi-0.dtd"
   xmlns:inkscape="http://www.inkscape.org/namespaces/inkscape"
   version="1.0"
   width="900.000000pt"
   height="650.000000pt"
   viewBox="0 0 900.000000 650.000000"
   preserveAspectRatio="xMidYMid meet"
   id="svg2"
   inkscape:version="0.91 r13725"
   sodipodi:docname="logo.svg"
   inkscape:export-filename="/home/yromero/git/grupo106/webpage/index_files/logo.png"
   inkscape:export-xdpi="36.07045"
   inkscape:export-ydpi="36.07045">
  <defs
     id="defs14" />
  <sodipodi:namedview
     pagecolor="#ffffff"
     bordercolor="#666666"
     borderopacity="1"
     objecttolerance="10"
     gridtolerance="10"
     guidetolerance="10"
     inkscape:pageopacity="0"
     inkscape:pageshadow="2"
     inkscape:window-width="1920"
     inkscape:window-height="1016"
     id="namedview12"
     showgrid="false"
     inkscape:zoom="0.58092308"
     inkscape:cx="268.61541"
     inkscape:cy="282.91592"
     inkscape:window-x="0"
     inkscape:window-y="27"
     inkscape:window-maximized="1"
     inkscape:current-layer="svg2" />
  <metadata
     id="metadata4">
Created by potrace 1.13, written by Peter Selinger 2001-2015
<rdf:RDF>
  <cc:Work
     rdf:about="">
    <dc:format>image/svg+xml</dc:format>
    <dc:type
       rdf:resource="http://purl.org/dc/dcmitype/StillImage" />
    <dc:title />
  </cc:Work>
</rdf:RDF>
</metadata>
  <path
     style="fill:#2c3e50;fill-opacity:1"
     d="M 441.28282,69.214062 C 436.33125,69.20625 432.3,69.325 430,69.6 c -20.2,2.4 -30.6,4.1 -42.5,7.1 -91.2,22.8 -163,94.6 -185.8,185.8 -5.5,22.2 -7.2,36.5 -7.2,62.5 0,26 1.7,40.3 7.2,62.5 22.8,91.2 94.6,163 185.8,185.8 22.2,5.5 36.5,7.2 62.5,7.2 26,0 40.3,-1.7 62.5,-7.2 91.2,-22.8 163,-94.6 185.8,-185.8 5.5,-22.2 7.2,-36.5 7.2,-62.5 0,-26 -1.7,-40.3 -7.2,-62.5 C 673.4,162.8 590.6,87.4 488.8,71.9 479.275,70.4 456.1375,69.2375 441.28282,69.214062 Z"
     id="path3563"
     inkscape:export-xdpi="36.050255"
     inkscape:export-ydpi="36.050255" />
  <g
     id="Layer_2"
     transform="matrix(0.8,0,0,0.8,424.71776,230.54407)" />
  <path
     style="clip-rule:evenodd;fill:#ffffff;fill-rule:evenodd;image-rendering:optimizeQuality;shape-rendering:geometricPrecision;text-rendering:geometricPrecision;fill-opacity:1"
     d="m 454.22243,127.40983 c -0.74842,-0.005 -1.50113,0.008 -2.25781,0.0391 -8.20401,0.30826 -15.96074,3.23641 -22.32501,7.24374 -8.27852,5.2712 -7.65718,6.01224 -12.55468,10.42032 -4.52458,4.06898 0.57199,10.17265 3.65468,6.59688 1.26789,-1.47964 2.48622,-2.6819 3.92813,-3.97656 16.18407,-14.58056 36.02317,-16.52388 53.77344,-4.40938 l 6.31407,5.14843 c 2.75954,2.68183 4.20161,5.36401 6.71249,3.88438 1.46679,-0.89394 2.58446,-3.63735 1.21719,-6.01094 -0.67126,-1.14055 -7.1344,-6.90466 -7.95468,-7.58281 -8.9964,-7.25368 -19.28148,-11.28415 -30.50782,-11.35312 z m 0.59375,18.99062 c -1.47468,3.6e-4 -3.01059,0.1037 -4.61719,0.31562 -7.5825,1.01727 -15.96028,5.67196 -21.13125,11.4672 -0.62151,0.67814 -2.08804,1.75588 -2.46093,3.20468 -0.74581,2.92845 1.66486,7.18288 5.14531,3.66875 3.18213,-3.2367 5.2712,-5.02516 9.32344,-7.30625 10.41657,-5.82606 22.99517,-3.82246 32.16874,3.85313 0.96958,0.80148 2.03897,1.7572 2.85938,2.62031 0.77065,0.86313 1.71518,2.25142 3.30625,2.12812 2.06341,-0.1541 4.57492,-3.88544 0.94532,-7.36874 -7.87448,-7.57928 -15.21633,-12.58535 -25.53907,-12.58282 z m -0.26875,19.2125 c -0.9979,-0.0114 -2.01678,0.058 -3.05625,0.21406 -4.82296,0.73983 -9.47153,3.42224 -13.02656,6.96719 -2.61034,2.58936 0.0503,9.30932 4.27656,5.33281 6.83661,-6.4734 16.10895,-6.47399 22.99531,-0.15469 1.29276,1.2022 2.68466,2.3737 4.4,0.46251 3.28165,-3.63744 -1.09357,-6.90459 -3.55468,-8.6 -3.75704,-2.60476 -7.71013,-4.17228 -12.03438,-4.22188 z m -0.42031,19.66563 a 16.358146,20.283303 0 0 0 -16.35782,20.28281 16.358146,20.283303 0 0 0 13.45313,19.94375 l -0.005,0.0312 c -1.6355,18.29823 -3.97201,37.69727 -6.67187,56.19531 -116.07462,2.11297 -208.61875,42.41177 -208.61875,91.76875 0,31.41721 38.12009,60.58018 100.84218,77.43906 l -0.008,0.025 c -1.14358,2.89763 -2.63588,5.48751 -4.575,7.64532 -1.41704,0.80145 -2.38593,2.5898 -2.38593,4.68593 0,2.83596 1.88925,5.70175 4.15156,5.14687 l 66.825,-16.8 c 2.23743,-0.58568 4.15156,-2.31091 4.15156,-5.14687 0,-2.46606 -1.393,-3.85363 -3.20781,-5.025 l -49.91875,-37.23749 c -0.64638,-0.52404 -1.41724,-0.83282 -2.26251,-0.83282 -2.31201,0 -4.15156,2.31248 -4.15156,5.14844 0,0.27742 1.1e-4,0.52371 0.025,0.77031 l 0,10.77343 c -46.13445,-10.47807 -76.12344,-27.43734 -76.12344,-46.59218 0,-30.21294 74.66529,-54.96012 169.61407,-57.37344 -5.01539,27.11091 -10.46117,48.16116 -14.88281,54.075 -5.51901,7.89136 -11.3115,11.71398 -17.25313,13.07031 -13.07657,2.7435 -52.40565,-6.87441 -67.04844,-16.70781 l -0.0234,0.005 a 10.49109,13.00844 0 0 0 -10.29375,-10.54688 10.49109,13.00844 0 0 0 -10.49063,13.00782 10.49109,13.00844 0 0 0 0.0516,1.16718 l -0.0266,0.005 c 1.46676,26.66422 47.78145,40.59773 135.19063,42.81719 87.40912,-2.21946 133.72371,-16.15297 135.16562,-42.81719 l -0.0219,-0.003 a 10.49109,13.00844 0 0 0 0.0469,-1.16875 10.49109,13.00844 0 0 0 -10.49062,-13.00782 10.49109,13.00844 0 0 0 -10.29844,10.54531 l -0.0187,-0.003 c -14.64279,9.8334 -53.94684,19.45131 -67.02344,16.70781 -5.96643,-1.35633 -11.75915,-5.17895 -17.27812,-13.07031 -4.42169,-5.91384 -9.8674,-26.96409 -14.87969,-54.075 94.95914,2.41008 169.63594,27.15819 169.63594,57.37344 -10e-6,15.56698 -19.78975,29.6535 -51.90937,40.01094 -0.12428,0.0615 -0.37255,2e-4 -0.34844,0.12344 l 0,0.002 a 12.778247,15.844403 0 0 0 -9.76876,15.38124 12.778247,15.844403 0 0 0 12.77813,15.84376 12.778247,15.844403 0 0 0 4.1875,-0.89376 l 0.0141,0.0609 c 49.69601,-17.44734 78.40938,-43.27821 78.40938,-70.52813 0,-49.3592 -92.57573,-89.65911 -208.63594,-91.76875 -2.69619,-18.49802 -5.02673,-37.89711 -6.65469,-56.19531 l -0.003,-0.0219 a 16.358146,20.283303 0 0 0 13.45156,-19.95312 16.358146,20.283303 0 0 0 -16.35781,-20.28281 z"
     id="path4301"
     inkscape:connector-curvature="0" />
</svg>
