<?xml version="1.0" encoding="UTF-8" standalone="no"?>
<svg
   xmlns:dc="http://purl.org/dc/elements/1.1/"
   xmlns:cc="http://creativecommons.org/ns#"
   xmlns:rdf="http://www.w3.org/1999/02/22-rdf-syntax-ns#"
   xmlns:svg="http://www.w3.org/2000/svg"
   xmlns="http://www.w3.org/2000/svg"
   xmlns:sodipodi="http://sodipodi.sourceforge.net/DTD/sodipodi-0.dtd"
   xmlns:inkscape="http://www.inkscape.org/namespaces/inkscape"
   version="1.0"
   width="900.000000pt"
   height="650.000000pt"
   viewBox="0 0 900.000000 650.000000"
   preserveAspectRatio="xMidYMid meet"
   id="svg2"
   inkscape:version="0.91 r13725"
   sodipodi:docname="mega.svg"
   inkscape:export-filename="/home/yromero/ownCloud/UNLaM/Proyecto final/lab/files/portal/index_files/mega.png"
   inkscape:export-xdpi="89"
   inkscape:export-ydpi="89">
  <defs
     id="defs14" />
  <sodipodi:namedview
     pagecolor="#ffffff"
     bordercolor="#666666"
     borderopacity="1"
     objecttolerance="10"
     gridtolerance="10"
     guidetolerance="10"
     inkscape:pageopacity="0"
     inkscape:pageshadow="2"
     inkscape:window-width="1920"
     inkscape:window-height="1016"
     id="namedview12"
     showgrid="false"
     inkscape:zoom="0.58092308"
     inkscape:cx="667.11911"
     inkscape:cy="387.92121"
     inkscape:window-x="0"
     inkscape:window-y="27"
     inkscape:window-maximized="1"
     inkscape:current-layer="svg2" />
  <metadata
     id="metadata4">
Created by potrace 1.13, written by Peter Selinger 2001-2015
<rdf:RDF>
  <cc:Work
     rdf:about="">
    <dc:format>image/svg+xml</dc:format>
    <dc:type
       rdf:resource="http://purl.org/dc/dcmitype/StillImage" />
    <dc:title></dc:title>
  </cc:Work>
</rdf:RDF>
</metadata>
  <path
     style="fill:#c83737"
     d="m 432.41426,596.03058 c -74.09544,-8.63809 -124.17431,-31.6419 -171.40648,-78.73582 -46.12197,-45.98699 -70.89939,-99.34796 -78.10552,-168.20905 -2.45806,-23.48905 -0.57818,-50.33414 5.49607,-78.48587 18.45581,-85.53513 79.78652,-158.21955 161.0688,-190.886332 25.66983,-10.316517 44.4168,-14.92611 75.3228,-18.520692 23.80403,-2.768562 27.32391,-2.768489 51.12795,0.0011 66.96204,7.790976 118.13901,32.015083 163.78214,77.524614 73.24691,73.03255 97.89686,179.76731 64.01639,277.19232 -21.65235,62.26241 -66.90548,115.56202 -125.99114,148.39363 -21.59574,11.99993 -54.75897,23.26363 -82.98787,28.18632 -15.83978,2.76224 -51.58027,4.7922 -62.32314,3.53979 z m -75.34644,-221.81409 0,-63.2219 39.03365,39.00341 39.03367,39.00339 15.21877,0 15.21877,0 39.03365,-39.00339 39.03365,-39.00341 0,63.2219 0,63.22191 33.18831,0 33.18832,0 0,-109.43175 0,-109.43175 -31.8306,0 -31.83061,0 -48.00074,47.97605 -48.00075,47.97606 -48.00076,-47.97606 -48.00073,-47.97605 -31.83064,0 -31.8306,0 0,109.43175 0,109.43175 33.18832,0 33.18832,0 0,-63.22191 z"
     id="path3563"
     inkscape:connector-curvature="0" />
  <path
     style="fill:#fff6d5;stroke:none"
     inkscape:connector-curvature="0"
     id="path8"
     d="m 0,325 0,325 450,0 450,0 0,-325 L 900,0 450,0 0,0 0,325 Z M 488.8,71.9 c 101.8,15.5 184.6,90.9 209.5,190.6 5.5,22.2 7.2,36.5 7.2,62.5 0,26 -1.7,40.3 -7.2,62.5 -22.8,91.2 -94.6,163 -185.8,185.8 -22.2,5.5 -36.5,7.2 -62.5,7.2 -26,0 -40.3,-1.7 -62.5,-7.2 -91.2,-22.8 -163,-94.6 -185.8,-185.8 -5.5,-22.2 -7.2,-36.5 -7.2,-62.5 0,-26 1.7,-40.3 7.2,-62.5 22.8,-91.2 94.6,-163 185.8,-185.8 11.9,-3 22.3,-4.7 42.5,-7.1 9.2,-1.1 46.1,0.3 58.8,2.3 z" />
  <g
     id="Layer_2"
     transform="matrix(0.8,0,0,0.8,424.71776,230.54407)" />
</svg>
