<?xml version="1.0" encoding="UTF-8" standalone="no"?>
<svg
   xmlns:dc="http://purl.org/dc/elements/1.1/"
   xmlns:cc="http://creativecommons.org/ns#"
   xmlns:rdf="http://www.w3.org/1999/02/22-rdf-syntax-ns#"
   xmlns:svg="http://www.w3.org/2000/svg"
   xmlns="http://www.w3.org/2000/svg"
   xmlns:sodipodi="http://sodipodi.sourceforge.net/DTD/sodipodi-0.dtd"
   xmlns:inkscape="http://www.inkscape.org/namespaces/inkscape"
   version="1.0"
   width="900.000000pt"
   height="650.000000pt"
   viewBox="0 0 900.000000 650.000000"
   preserveAspectRatio="xMidYMid meet"
   id="svg2"
   inkscape:version="0.91 r13725"
   sodipodi:docname="optimiza.svg"
   inkscape:export-filename="/home/yromero/git/grupo106/webpage/index_files/optimiza.png"
   inkscape:export-xdpi="89"
   inkscape:export-ydpi="89">
  <defs
     id="defs14" />
  <sodipodi:namedview
     pagecolor="#ffffff"
     bordercolor="#666666"
     borderopacity="1"
     objecttolerance="10"
     gridtolerance="10"
     guidetolerance="10"
     inkscape:pageopacity="0"
     inkscape:pageshadow="2"
     inkscape:window-width="1920"
     inkscape:window-height="1016"
     id="namedview12"
     showgrid="false"
     inkscape:zoom="0.8215493"
     inkscape:cx="238.81071"
     inkscape:cy="320.57337"
     inkscape:window-x="0"
     inkscape:window-y="27"
     inkscape:window-maximized="1"
     inkscape:current-layer="svg2"
     inkscape:snap-grids="true"
     showguides="false">
    <inkscape:grid
       type="xygrid"
       id="grid3355" />
  </sodipodi:namedview>
  <metadata
     id="metadata4">
Created by potrace 1.13, written by Peter Selinger 2001-2015
<rdf:RDF>
  <cc:Work
     rdf:about="">
    <dc:format>image/svg+xml</dc:format>
    <dc:type
       rdf:resource="http://purl.org/dc/dcmitype/StillImage" />
    <dc:title></dc:title>
  </cc:Work>
</rdf:RDF>
</metadata>
  <path
     style="fill:#f6ffd5;fill-opacity:1"
     d="m 459.62526,625.94448 c 5.88514,0.009 10.67645,-0.13185 13.41009,-0.4587 24.00853,-2.8525 36.36935,-4.87302 50.51298,-8.43864 108.39492,-27.09873 193.73215,-112.43596 220.83088,-220.83087 6.53697,-26.38561 8.55749,-43.38174 8.55749,-74.2838 0,-30.90206 -2.02052,-47.89819 -8.55749,-74.2838 C 717.28048,139.25375 631.94325,53.916531 523.54833,26.817801 c -26.3856,-6.53698 -43.38173,-8.55749 -74.28379,-8.55749 -30.90206,0 -47.8982,2.02051 -74.2838,8.55749 C 266.58582,53.916531 181.2486,139.25375 154.14987,247.64867 c -6.53698,26.38561 -8.5575,43.38174 -8.5575,74.2838 0,30.90206 2.02052,47.89819 8.5575,74.2838 29.59466,118.49751 128.00584,208.11348 248.99929,226.53586 11.32085,1.78281 38.82071,3.16449 56.4761,3.19235 z"
     id="path3563"
     inkscape:connector-curvature="0" />
  <g
     id="Layer_2"
     transform="matrix(0.8,0,0,0.8,424.71776,230.54407)" />
  <path
     style="fill:#7fff2a"
     d="m 448.6403,149.55655 c -19.16912,0.13652 -40.3194,1.7607 -51.358,4.42868 -31.01221,7.49547 -67.64764,25.39427 -91.31758,44.61553 -26.70625,21.68689 -51.64653,52.89291 -68.57176,85.80554 -13.80127,26.83776 -14.48361,25.44475 19.47671,39.60008 15.85454,6.60844 37.19541,15.54912 47.42414,19.86746 28.7494,12.13733 25.35129,12.56451 34.45299,-4.30572 11.45289,-21.22914 30.8291,-41.15567 50.27916,-51.70058 8.63135,-4.67947 21.08111,-9.99835 27.66407,-11.82296 15.7645,-4.36901 44.044,-4.37768 59.63251,-0.0153 34.34037,9.6074 65.3803,36.6575 81.2233,70.78301 l 4.58768,9.88022 -0.29068,0.22607 c 0.16576,0.34556 0.3184,0.726 0.4577,1.14186 0.0704,0.21137 0.18388,0.5199 0.28696,0.81279 0.22642,0.20224 0.44838,0.40367 0.63566,0.61056 23.72138,-12.85203 87.73726,-46.253 94.58307,-49.16312 0.37177,-0.15809 0.68087,-0.24385 1.00986,-0.35287 0.0232,-0.0153 0.0341,-0.0332 0.0581,-0.0477 l -0.0116,0 c 0.26093,-0.1553 0.5224,-0.30381 0.78091,-0.46387 0.13902,-0.0865 0.27841,-0.17585 0.41417,-0.26961 0,-0.0178 0.005,-0.038 0.005,-0.0556 0.28975,-0.22051 0.34945,-0.29782 0.4469,-0.17433 l 0,0.005 c 0.0675,-0.0873 0.74279,-0.37595 0.38497,-0.24969 0.18365,-0.14946 0.23936,-0.19513 0.50846,-0.22608 0.0398,-0.0153 0.0477,-0.0297 0.0727,-0.0396 0.093,-0.0368 0.19133,-0.0581 0.28696,-0.0873 0.15157,-0.10254 0.30854,0.0126 0.46123,-0.005 -0.0391,-0.035 -0.0761,-0.0739 -0.11624,-0.10712 0.13159,-0.1591 0.26558,-0.31564 0.39594,-0.47578 -0.0116,-0.01 -0.0279,-0.0126 -0.0398,-0.0229 -0.0325,-0.0264 0.06,-0.0368 0.10525,-0.0556 0.0532,-0.0609 0.0963,-0.13322 0.15622,-0.18625 0.19806,-0.1761 0.44411,-0.27798 0.67193,-0.4044 0.79803,-0.443 0.98828,-0.56239 1.88153,-0.76123 0.0834,-0.0178 0.1697,-0.0229 0.25424,-0.0358 0.0654,-0.0254 0.24195,-0.10025 0.30518,-0.1228 0,0 0.005,0 0.005,0 0.0874,-0.0442 0.0186,-0.0426 0.11624,-0.13475 0.13948,-0.1289 0.29533,-0.23547 0.443,-0.35285 0.24344,-0.17078 0.45341,-0.25413 0.65389,-0.36077 -0.0186,-0.20605 -0.0358,-0.41207 -0.0543,-0.61854 -0.007,-0.0802 -0.0186,-0.30063 -0.0327,-0.448 -0.14134,-0.2567 -0.29161,-0.37114 -0.60293,-0.67005 -0.15297,-0.14717 -0.24587,-0.29995 -0.31598,-0.44804 -1.64887,-1.11285 -4.36581,-5.13905 -6.5927,-9.93569 -36.4128,-78.43325 -103.19529,-130.87831 -181.06611,-142.20042 -7.46081,-1.08472 -18.24759,-1.53697 -29.74907,-1.45506 z m 237.74186,146.67267 c 0.0209,0.0203 0.0591,0.0401 0.0834,0.0593 1.8e-4,-0.005 0.0116,-0.0153 0.0116,-0.0203 0,-0.0286 -0.06,-0.0279 -0.0943,-0.0396 z m -4.09372,1.35597 c -0.10181,0.0421 -0.23806,0.10759 -0.34146,0.15073 0.005,0.0178 0.009,0.0368 0.0139,0.0556 0.0361,-0.0229 0.3409,-0.21619 0.32695,-0.20629 z m -21.72157,11.46213 c 0.0527,0.0797 0.21574,0.3275 0.33067,0.51939 0.009,7.1e-4 0.0186,0.002 0.0291,0.005 0.0411,-0.23394 -0.0575,-0.39903 -0.35967,-0.52336 z m 1.40208,0.68194 c -0.009,0.005 0.002,-1e-4 -0.0186,0.005 -0.0784,0.0152 -0.15692,0.033 -0.2362,0.0437 -0.0186,0.0153 -0.0363,0.0291 -0.0543,0.0437 0.15343,0.12484 0.26297,0.28553 0.29794,0.49958 0.0881,-0.0517 0.17156,-0.10278 0.26148,-0.15073 0.0479,-0.0487 0.0584,-0.0593 0.11972,-0.11903 0.005,-0.005 0.005,-0.007 0.0116,-0.0126 -0.0423,-0.005 -0.0848,-0.01 -0.12717,-0.0153 0.0711,0.10916 0.0288,0.14033 -0.27952,0.0153 -0.0409,-0.0203 -5.5e-4,0.007 0.0186,-0.0203 0,-0.038 -0.0558,-0.0338 0,-0.0277 0.087,0.01 0.17436,0.0203 0.26149,0.0318 -0.0423,-0.0652 -0.15368,-0.18371 -0.25424,-0.2934 z m -0.20689,0.007 c -0.005,0.005 -0.009,0.007 -0.0139,0.0126 0.005,-0.002 0.009,-0.005 0.0139,-0.007 l 0,-0.005 z m -0.0834,0.0437 c -0.0163,0.002 -0.0339,0.005 -0.0509,0.007 0.005,0.002 0.007,0.007 0.0116,0.0126 0.0139,-0.007 0.027,-0.0126 0.04,-0.0203 z m -1.10434,2.33921 c -0.0186,0.0153 -0.0275,0.027 -0.0472,0.0437 0.005,-10e-4 0.0284,-0.01 0.0509,-0.0203 -0.002,-0.007 -0.001,-0.0153 -0.005,-0.0229 z m -17.16642,12.61986 c 0.10318,0.0733 0.20016,0.15706 0.30147,0.23396 -0.007,-0.05 -0.0186,-0.12383 -0.0256,-0.17053 -0.0916,-0.0229 -0.18458,-0.0412 -0.27599,-0.0634 z m -163.65623,99.52364 c -0.0209,0.0282 -0.0423,0.0561 -0.0653,0.0832 0.0272,-0.007 0.063,-0.0178 0.0909,-0.0277 -0.007,-0.0203 -0.0186,-0.0357 -0.0253,-0.0556 z m 1.09336,1.46299 c -0.062,0.0764 -0.13459,0.16722 -0.19969,0.24969 0.0639,-10e-4 0.1102,0.001 0.17436,0 0.0604,-0.0364 0.15018,-0.0944 0.21061,-0.13093 -0.07,-0.0277 -0.12088,-0.083 -0.18528,-0.11903 z"
     id="path3428"
     inkscape:connector-curvature="0" />
  <path
     inkscape:connector-curvature="0"
     id="path3424-3"
     d="m 455.65561,415.23284 c -4.38851,-4.83492 -4.77728,-8.19511 -1.48996,-12.87781 1.2786,-1.8213 26.59469,-15.9269 56.25802,-31.3457 29.66333,-15.4188 54.96797,-28.95966 56.23251,-30.09085 2.2451,-2.00829 95.87917,-51.46798 104.17265,-55.02643 2.5702,-1.1028 4.18449,-1.03449 4.18449,0.17687 0,1.08483 -6.0675,5.3377 -13.48334,9.45079 -7.41583,4.1131 -54.07281,33.03777 -103.68217,64.277 -49.60937,31.23931 -92.03904,57.43769 -94.2882,58.21869 -2.8749,0.99823 -5.22219,0.17179 -7.904,-2.78279 z"
     style="fill:#0f0c0c" />
</svg>
