<?xml version="1.0" encoding="UTF-8" standalone="no"?>
<svg
   xmlns:dc="http://purl.org/dc/elements/1.1/"
   xmlns:cc="http://creativecommons.org/ns#"
   xmlns:rdf="http://www.w3.org/1999/02/22-rdf-syntax-ns#"
   xmlns:svg="http://www.w3.org/2000/svg"
   xmlns="http://www.w3.org/2000/svg"
   xmlns:sodipodi="http://sodipodi.sourceforge.net/DTD/sodipodi-0.dtd"
   xmlns:inkscape="http://www.inkscape.org/namespaces/inkscape"
   version="1.0"
   width="900.000000pt"
   height="650.000000pt"
   viewBox="0 0 900.000000 650.000000"
   preserveAspectRatio="xMidYMid meet"
   id="svg2"
   inkscape:version="0.91 r13725"
   sodipodi:docname="optimiza.svg"
   inkscape:export-filename="/home/yromero/git/grupo106/webpage/index_files/optimiza.png"
   inkscape:export-xdpi="72"
   inkscape:export-ydpi="72">
  <defs
     id="defs14" />
  <sodipodi:namedview
     pagecolor="#ffffff"
     bordercolor="#666666"
     borderopacity="1"
     objecttolerance="10"
     gridtolerance="10"
     guidetolerance="10"
     inkscape:pageopacity="0"
     inkscape:pageshadow="2"
     inkscape:window-width="1920"
     inkscape:window-height="1016"
     id="namedview12"
     showgrid="false"
     inkscape:zoom="0.8215493"
     inkscape:cx="484.1811"
     inkscape:cy="409.42988"
     inkscape:window-x="0"
     inkscape:window-y="27"
     inkscape:window-maximized="1"
     inkscape:current-layer="svg2"
     inkscape:snap-grids="true"
     showguides="false">
    <inkscape:grid
       type="xygrid"
       id="grid3355" />
  </sodipodi:namedview>
  <metadata
     id="metadata4">
Created by potrace 1.13, written by Peter Selinger 2001-2015
<rdf:RDF>
  <cc:Work
     rdf:about="">
    <dc:format>image/svg+xml</dc:format>
    <dc:type
       rdf:resource="http://purl.org/dc/dcmitype/StillImage" />
    <dc:title />
  </cc:Work>
</rdf:RDF>
</metadata>
  <path
     style="fill:#782144;fill-opacity:1;stroke:none;stroke-width:0.80000001;stroke-opacity:1"
     d="m 1.0253906,650.92188 c 299.8867194,0 599.7734394,-10e-6 899.6601594,0 0,-217.11589 0,-434.23178 0,-651.34766125 -299.88672,0 -599.77344,0 -899.6601594,0 0,217.11588125 0,434.23177125 0,651.34766125 z"
     id="rect3345"
     inkscape:connector-curvature="0"
     inkscape:export-xdpi="72"
     inkscape:export-ydpi="72" />
  <path
     style="fill:#f6ffd5;fill-opacity:1"
     d="M 552.91016 83.337891 C 546.7207 83.328125 541.68164 83.476562 538.80664 83.820312 C 513.55664 86.820312 500.55664 88.945312 485.68164 92.695312 C 371.68164 121.19532 281.93164 210.94531 253.43164 324.94531 C 246.55664 352.69531 244.43164 370.57031 244.43164 403.07031 C 244.43164 435.57031 246.55664 453.44531 253.43164 481.19531 C 281.93164 595.19531 371.68164 684.94531 485.68164 713.44531 C 513.43164 720.32031 531.30664 722.44531 563.80664 722.44531 C 596.30664 722.44531 614.18164 720.32031 641.93164 713.44531 C 755.93164 684.94531 845.68164 595.19531 874.18164 481.19531 C 881.05664 453.44531 883.18164 435.57031 883.18164 403.07031 C 883.18164 370.57031 881.05664 352.69531 874.18164 324.94531 C 843.05664 200.32031 739.55664 106.07031 612.30664 86.695312 C 600.40039 84.820313 571.47852 83.367188 552.91016 83.337891 z "
     id="path3563"
     transform="scale(0.8,0.8)" />
  <g
     id="Layer_2"
     transform="matrix(0.8,0,0,0.8,424.71776,230.54407)" />
  <path
     style="fill:#18bc9c;fill-opacity:1"
     d="m 453.02391,146.70409 c -19.16912,0.13652 -40.3194,1.7607 -51.358,4.42868 -31.01221,7.49547 -67.64764,25.39427 -91.31758,44.61553 -26.70625,21.68689 -51.64653,52.89291 -68.57176,85.80554 -13.80127,26.83776 -14.48361,25.44475 19.47671,39.60008 15.85454,6.60844 37.19541,15.54912 47.42414,19.86746 28.7494,12.13733 25.35129,12.56451 34.45299,-4.30572 11.45289,-21.22914 30.8291,-41.15567 50.27916,-51.70058 8.63135,-4.67947 21.08111,-9.99835 27.66407,-11.82296 15.7645,-4.36901 44.044,-4.37768 59.63251,-0.0153 34.34037,9.6074 65.3803,36.6575 81.2233,70.78301 l 4.58768,9.88022 -0.29068,0.22607 c 0.16576,0.34556 0.3184,0.726 0.4577,1.14186 0.0704,0.21137 0.18388,0.5199 0.28696,0.81279 0.22642,0.20224 0.44838,0.40367 0.63566,0.61056 23.72138,-12.85203 87.73726,-46.253 94.58307,-49.16312 0.37177,-0.15809 0.68087,-0.24385 1.00986,-0.35287 0.0232,-0.0153 0.0341,-0.0332 0.0581,-0.0477 l -0.0116,0 c 0.26093,-0.1553 0.5224,-0.30381 0.78091,-0.46387 0.13902,-0.0865 0.27841,-0.17585 0.41417,-0.26961 0,-0.0178 0.005,-0.038 0.005,-0.0556 0.28975,-0.22051 0.34945,-0.29782 0.4469,-0.17433 l 0,0.005 c 0.0675,-0.0873 0.74279,-0.37595 0.38497,-0.24969 0.18365,-0.14946 0.23936,-0.19513 0.50846,-0.22608 0.0398,-0.0153 0.0477,-0.0297 0.0727,-0.0396 0.093,-0.0368 0.19133,-0.0581 0.28696,-0.0873 0.15157,-0.10254 0.30854,0.0126 0.46123,-0.005 -0.0391,-0.035 -0.0761,-0.0739 -0.11624,-0.10712 0.13159,-0.1591 0.26558,-0.31564 0.39594,-0.47578 -0.0116,-0.01 -0.0279,-0.0126 -0.0398,-0.0229 -0.0325,-0.0264 0.06,-0.0368 0.10525,-0.0556 0.0532,-0.0609 0.0963,-0.13322 0.15622,-0.18625 0.19806,-0.1761 0.44411,-0.27798 0.67193,-0.4044 0.79803,-0.443 0.98828,-0.56239 1.88153,-0.76123 0.0834,-0.0178 0.1697,-0.0229 0.25424,-0.0358 0.0654,-0.0254 0.24195,-0.10025 0.30518,-0.1228 0,0 0.005,0 0.005,0 0.0874,-0.0442 0.0186,-0.0426 0.11624,-0.13475 0.13948,-0.1289 0.29533,-0.23547 0.443,-0.35285 0.24344,-0.17078 0.45341,-0.25413 0.65389,-0.36077 -0.0186,-0.20605 -0.0358,-0.41207 -0.0543,-0.61854 -0.007,-0.0802 -0.0186,-0.30063 -0.0327,-0.448 -0.14134,-0.2567 -0.29161,-0.37114 -0.60293,-0.67005 -0.15297,-0.14717 -0.24587,-0.29995 -0.31598,-0.44804 -1.64887,-1.11285 -4.36581,-5.13905 -6.5927,-9.93569 -36.4128,-78.43325 -103.19529,-130.87831 -181.06611,-142.20042 -7.46081,-1.08472 -18.24759,-1.53697 -29.74907,-1.45506 z m 237.74186,146.67267 c 0.0209,0.0203 0.0591,0.0401 0.0834,0.0593 1.8e-4,-0.005 0.0116,-0.0153 0.0116,-0.0203 0,-0.0286 -0.06,-0.0279 -0.0943,-0.0396 z m -4.09372,1.35597 c -0.10181,0.0421 -0.23806,0.10759 -0.34146,0.15073 0.005,0.0178 0.009,0.0368 0.0139,0.0556 0.0361,-0.0229 0.3409,-0.21619 0.32695,-0.20629 z m -21.72157,11.46213 c 0.0527,0.0797 0.21574,0.3275 0.33067,0.51939 0.009,7.1e-4 0.0186,0.002 0.0291,0.005 0.0411,-0.23394 -0.0575,-0.39903 -0.35967,-0.52336 z m 1.40208,0.68194 c -0.009,0.005 0.002,-10e-5 -0.0186,0.005 -0.0784,0.0152 -0.15692,0.033 -0.2362,0.0437 -0.0186,0.0153 -0.0363,0.0291 -0.0543,0.0437 0.15343,0.12484 0.26297,0.28553 0.29794,0.49958 0.0881,-0.0517 0.17156,-0.10278 0.26148,-0.15073 0.0479,-0.0487 0.0584,-0.0593 0.11972,-0.11903 0.005,-0.005 0.005,-0.007 0.0116,-0.0126 -0.0423,-0.005 -0.0848,-0.01 -0.12717,-0.0153 0.0711,0.10916 0.0288,0.14033 -0.27952,0.0153 -0.0409,-0.0203 -5.5e-4,0.007 0.0186,-0.0203 0,-0.038 -0.0558,-0.0338 0,-0.0277 0.087,0.01 0.17436,0.0203 0.26149,0.0318 -0.0423,-0.0652 -0.15368,-0.18371 -0.25424,-0.2934 z m -0.20689,0.007 c -0.005,0.005 -0.009,0.007 -0.0139,0.0126 0.005,-0.002 0.009,-0.005 0.0139,-0.007 l 0,-0.005 z m -0.0834,0.0437 c -0.0163,0.002 -0.0339,0.005 -0.0509,0.007 0.005,0.002 0.007,0.007 0.0116,0.0126 0.0139,-0.007 0.027,-0.0126 0.04,-0.0203 z m -1.10434,2.33921 c -0.0186,0.0153 -0.0275,0.027 -0.0472,0.0437 0.005,-10e-4 0.0284,-0.01 0.0509,-0.0203 -0.002,-0.007 -10e-4,-0.0153 -0.005,-0.0229 z m -17.16642,12.61986 c 0.10318,0.0733 0.20016,0.15706 0.30147,0.23396 -0.007,-0.05 -0.0186,-0.12383 -0.0256,-0.17053 -0.0916,-0.0229 -0.18458,-0.0412 -0.27599,-0.0634 z m -163.65623,99.52364 c -0.0209,0.0282 -0.0423,0.0561 -0.0653,0.0832 0.0272,-0.007 0.063,-0.0178 0.0909,-0.0277 -0.007,-0.0203 -0.0186,-0.0357 -0.0253,-0.0556 z m 1.09336,1.46299 c -0.062,0.0764 -0.13459,0.16722 -0.19969,0.24969 0.0639,-10e-4 0.1102,0.001 0.17436,0 0.0604,-0.0364 0.15018,-0.0944 0.21061,-0.13093 -0.07,-0.0277 -0.12088,-0.083 -0.18528,-0.11903 z"
     id="path3428"
     inkscape:connector-curvature="0" />
  <path
     inkscape:connector-curvature="0"
     id="path3424-3"
     d="m 455.82749,415.26 c -4.58812,-4.64592 -5.11797,-7.98678 -2.03067,-12.80369 1.20082,-1.8735 25.90076,-17.03216 54.88883,-33.68583 28.98806,-16.65367 53.70034,-31.24761 54.91614,-32.43102 2.15858,-2.101 93.62792,-55.45793 101.76427,-59.3623 2.52151,-1.21 4.13724,-1.2097 4.18823,5.9e-4 0.0457,1.08386 -5.83746,5.58835 -13.07361,10.00993 -7.23614,4.42159 -52.63433,35.28442 -100.88487,68.58403 -48.25053,33.2997 -89.53991,61.26072 -91.7542,62.1357 -2.83034,1.11835 -5.21034,0.39144 -8.01413,-2.44764 z"
     style="fill:#552200"
     inkscape:transform-center-x="-104.31757"
     inkscape:transform-center-y="-64.025366" />
</svg>
